<?xml version="1.0" encoding="utf-8"?>
<!-- Generator: Adobe Illustrator 21.1.0, SVG Export Plug-In . SVG Version: 6.00 Build 0)  -->
<svg version="1.1" id="Layer_1" xmlns="http://www.w3.org/2000/svg" xmlns:xlink="http://www.w3.org/1999/xlink" x="0px" y="0px"
	 viewBox="0 0 1440 500" style="enable-background:new 0 0 1440 500;" xml:space="preserve">
<style type="text/css">
	.st0{fill:#001B44;}
	.st1{fill:none;stroke:#9EEBCF;stroke-width:0.5;stroke-miterlimit:10;}
	.st2{fill:none;stroke:#9EEBCF;stroke-width:2;stroke-miterlimit:10;}
	.st3{fill:none;stroke:#9EEBCF;stroke-width:0.25;stroke-miterlimit:10;}
</style>
<rect class="st0" width="1440" height="500"/>
<circle class="st1" cx="720" cy="250" r="197.7"/>
<path class="st2" d="M658.3,91.2c0,0,168.5,77,174.6,148.3c6.1,71.3-83,97.9-76.9,97.9s17.9,65.2,17.9,65.2l-39.3-11.8l-15.2-48.6
	c0,0-105,28.5-123.9-37.6C576.5,238.5,658.3,91.2,658.3,91.2"/>
<path class="st3" d="M749.6,374.1c0.1,2.2-32.4-18-11.9-70c1.7-4.3,3.8-8.9,6.3-13.6c4.1-7.9-0.6-24.5-8.8-38.3
	c-0.9-1.5-1.9-3-2.9-4.5c-10-14.7-49.1-26.9-58.2-60.6c-8.5-31.7-14.4-65.8-7.9-65.6"/>
<line class="st3" x1="703.7" y1="160.4" x2="675" y2="189.1"/>
<line class="st3" x1="752.5" y1="221.7" x2="732.6" y2="247.8"/>
<line class="st3" x1="692.6" y1="279.9" x2="739" y2="299.3"/>
</svg>
