<?xml version="1.0" encoding="utf-8"?>
<!-- Generator: Adobe Illustrator 12.0.0, SVG Export Plug-In  -->
<!DOCTYPE svg PUBLIC "-//W3C//DTD SVG 1.1//EN" "http://www.w3.org/Graphics/SVG/1.1/DTD/svg11.dtd" [
	
<!ENTITY ns_flows "http://ns.adobe.com/Flows/1.0/">
<!ENTITY ns_svg "http://www.w3.org/2000/svg">
<!ENTITY ns_xlink "http://www.w3.org/1999/xlink">
]>
<svg  version="1.1"
	xmlns="&ns_svg;"
	xmlns:xlink="&ns_xlink;"
	xmlns:a="http://ns.adobe.com/AdobeSVGViewerExtensions/3.0/"
	 width="401" height="401" viewBox="-0.05 -0.072 401 401" enable-background="new -0.05 -0.072 401 401" xml:space="preserve">
	<defs></defs>
	<circle fill="none" stroke="#7DFF00" stroke-width="5" cx="200.227" cy="200.227" r="197.727"/>
	<path class="leaf" fill="none" stroke="#00A33D" stroke-width="10" d="M138.503,41.378c0,0,168.505,77.006,174.613,148.306
	c6.104,71.302-83.033,97.921-76.926,97.921c6.104,0,17.871,65.182,17.871,65.182l-39.331-11.782l-15.175-48.646
	c0,0-105.012,28.522-123.938-37.552S138.503,41.378,138.503,41.378"/>
	<path class="main" fill="none" stroke="#00A33D" stroke-width="5" d="M229.808,324.292c0.119,2.154-32.39-18.042-11.917-69.965
	c1.704-4.321,3.775-8.863,6.263-13.631c4.097-7.852-0.58-24.465-8.753-38.279c-0.909-1.538-1.862-3.041-2.852-4.493
	c-10.007-14.692-49.119-26.917-58.197-60.648c-8.529-31.687-14.377-65.793-7.852-65.557"/>
	<line class="upper" fill="none" stroke="#00A33D" stroke-width="2" x1="183.907" y1="110.643" x2="155.27" y2="139.28"/>
	<line class="middle" fill="none" stroke="#00A33D" stroke-width="2" x1="232.748" y1="171.893" x2="212.788" y2="198.063"/>
	<line class="lower" fill="none" stroke="#00A33D" stroke-width="2" x1="172.852" y1="230.093" x2="219.219" y2="249.479"/>
</svg>
